{
  "accessors": [
    {
      "bufferView": 1,
      "componentType": 5126,
      "count": 15493,
      "max": [
        34.835453033447266,
        65.30745697021484,
        16.735454559326172
      ],
      "min": [
        0.035453587770462036,
        0.009094364941120148,
        0.03545451909303665
      ],
      "type": "VEC3"
    },
    {
      "bufferView": 1,
      "byteOffset": 185916,
      "componentType": 5126,
      "count": 15493,
      "max": [
        1.0,
        1.0,
        1.0
      ],
      "min": [
        -1.0,
        -1.0,
        -1.0
      ],
      "type": "VEC3"
    },
    {
      "bufferView": 0,
      "componentType": 5125,
      "count": 73086,
      "type": "SCALAR"
    }
  ],
  "asset": {
    "extras": {
      "author": "TheBanditOfRed (https://sketchfab.com/TheBanditOfRed)",
      "license": "CC-BY-4.0 (http://creativecommons.org/licenses/by/4.0/)",
      "source": "https://sketchfab.com/3d-models/elf-bar-lost-mary-bm600-271afe34dae143218c1a616c1acc0e94",
      "title": "Elf Bar Lost Mary BM600"
    },
    "generator": "Sketchfab-15.3.0",
    "version": "2.0"
  },
  "bufferViews": [
    {
      "buffer": 0,
      "byteLength": 292344,
      "name": "floatBufferViews",
      "target": 34963
    },
    {
      "buffer": 0,
      "byteLength": 371832,
      "byteOffset": 292344,
      "byteStride": 12,
      "name": "floatBufferViews",
      "target": 34962
    }
  ],
  "buffers": [
    {
      "byteLength": 664176,
      "uri": "scene.bin"
    }
  ],
  "materials": [
    {
      "doubleSided": true,
      "name": "Scene_-_Root",
      "pbrMetallicRoughness": {
        "metallicFactor": 0.0,
        "roughnessFactor": 0.6
      }
    }
  ],
  "meshes": [
    {
      "name": "Object_0",
      "primitives": [
        {
          "attributes": {
            "NORMAL": 1,
            "POSITION": 0
          },
          "indices": 2,
          "material": 0,
          "mode": 4
        }
      ]
    }
  ],
  "nodes": [
    {
      "children": [
        1
      ],
      "matrix": [
        0.00277704861946404,
        -4.465834710013651e-19,
        -4.465834710013653e-19,
        0.0,
        4.465834710013652e-19,
        0.00277704861946404,
        0.0,
        0.0,
        4.465834710013652e-19,
        0.0,
        0.00277704861946404,
        0.0,
        0.0,
        0.0,
        0.0,
        1.0
      ],
      "name": "Sketchfab_model"
    },
    {
      "children": [
        2
      ],
      "name": "1lost_mary_complete.STL.cleaner.materialmerger.gles"
    },
    {
      "mesh": 0,
      "name": "Object_2"
    }
  ],
  "scene": 0,
  "scenes": [
    {
      "name": "Sketchfab_Scene",
      "nodes": [
        0
      ]
    }
  ]
}
